<svg viewBox="0 0 680 420" width="680" height="420" xmlns="http://www.w3.org/2000/svg">
  <defs>
    <linearGradient id="a" x1="0" y1="0" x2="1" y2="1">
      <stop offset="0" stop-color="#eaf0ff"/><stop offset="1" stop-color="#d8e4ff"/>
    </linearGradient>
    <linearGradient id="b" x1="0" y1="0" x2="1" y2="1">
      <stop offset="0" stop-color="#2455ff"/><stop offset="1" stop-color="#7aa3ff"/>
    </linearGradient>
  </defs>
  <rect x="0" y="0" width="680" height="420" rx="18" fill="url(#a)" />
  <rect x="24" y="24" width="632" height="48" rx="10" fill="#fff" opacity=".9"/>
  <circle cx="48" cy="48" r="6" fill="#e2e8f0"/>
  <circle cx="66" cy="48" r="6" fill="#e2e8f0"/>
  <circle cx="84" cy="48" r="6" fill="#e2e8f0"/>
  <rect x="24" y="92" width="318" height="90" rx="12" fill="url(#b)" opacity=".9"/>
  <rect x="356" y="92" width="300" height="90" rx="12" fill="#fff"/>
  <rect x="24" y="204" width="632" height="160" rx="12" fill="#fff"/>
  <rect x="44" y="224" width="180" height="16" rx="8" fill="#c7d2fe"/>
  <rect x="44" y="254" width="592" height="18" rx="9" fill="#e5e7eb"/>
  <rect x="44" y="282" width="592" height="18" rx="9" fill="#e5e7eb"/>
  <rect x="44" y="310" width="388" height="18" rx="9" fill="#e5e7eb"/>
</svg>
